ply
format ascii 1.0
comment simple triangulated cube example
element vertex 8
property float32 x
property float32 y
property float32 z
property float32 r
property float32 g
property float32 b
property float32 a
element face 12
property list uint8 uint32 vertex_indices
end_header
0.0 0.0 0.0 1 0 0 1
0.0 1.0 0.0 1 0 0 1
1.0 0.0 0.0 1 0 0 1
1.0 1.0 0.0 1 0 0 1
0.0 0.0 1.0 1 0 0 1
0.0 1.0 1.0 1 0 0 1
1.0 0.0 1.0 1 0 0 1
1.0 1.0 1.0 1 0 0 1
3 0 1 3
3 1 3 2
3 0 1 5
3 0 5 4
3 4 0 2
3 4 2 6
3 2 3 7
3 2 7 6
3 4 5 7
3 4 7 6
3 1 5 7
3 1 7 3
